<svg viewBox="0 0 173.257 28.273" xmlns="http://www.w3.org/2000/svg"><text xml:space="preserve" style="-inkscape-font-specification:'Gresco Trial Light'" x="25.85" y="142.563" font-weight="300" font-size="16.042" font-family="Gresco Trial" letter-spacing="-.334" fill="#053b50" stroke="#053b50" stroke-width=".063" stroke-linecap="round" stroke-linejoin="round" transform="translate(-13.129 -224.688) scale(1.72826)"><tspan style="-inkscape-font-specification:'Gresco Trial'" x="25.85" y="142.563" font-weight="400">IKA GORDEN</tspan></text><g stroke-width="9.629" stroke="#053b50" fill="none"><g transform="matrix(.29765 0 0 .29765 8.25 -46.392)" stroke-width="6.784"><circle cx="56.065" cy="203.246" r="7.81"/><path d="M57.327 225.52a22.17 22.17 0 0 1-.133 0 22.17 22.17 0 0 1-22.17-22.17 22.17 22.17 0 0 1 22.17-22.17 22.17 22.17 0 0 1 .133.001"/></g><g transform="matrix(0 .29765 -.29765 0 74.664 8.25)" stroke-width="6.784"><circle cx="56.065" cy="203.246" r="7.81"/><path d="M57.327 225.52a22.17 22.17 0 0 1-.133 0 22.17 22.17 0 0 1-22.17-22.17 22.17 22.17 0 0 1 22.17-22.17 22.17 22.17 0 0 1 .133.001"/></g><g transform="matrix(0 -.29765 .29765 0 -46.392 20.022)" stroke-width="6.784"><circle cx="56.065" cy="203.246" r="7.81"/><path d="M57.327 225.52a22.17 22.17 0 0 1-.133 0 22.17 22.17 0 0 1-22.17-22.17 22.17 22.17 0 0 1 22.17-22.17 22.17 22.17 0 0 1 .133.001"/></g><g transform="matrix(-.29765 0 0 -.29765 20.022 74.664)" stroke-width="6.784"><circle cx="56.065" cy="203.246" r="7.81"/><path d="M57.327 225.52a22.17 22.17 0 0 1-.133 0 22.17 22.17 0 0 1-22.17-22.17 22.17 22.17 0 0 1 22.17-22.17 22.17 22.17 0 0 1 .133.001"/></g><path stroke-linecap="round" stroke-linejoin="round" d="M12.05 12.05h4.172v4.172h-4.171z" stroke-width="2.0192012999999998"/></g><text xml:space="preserve" style="-inkscape-font-specification:'Milky Walky'" x="26.584" y="145.694" font-weight="400" font-size="3.119" font-family="Milky Walky" letter-spacing="0" fill="#053b50" stroke-width=".063" stroke-linecap="round" stroke-linejoin="round" transform="translate(-13.129 -224.688) scale(1.72826)"><tspan style="-inkscape-font-specification:'Gresco Trial'" x="26.584" y="145.694" font-family="Gresco Trial">Your home<tspan>.</tspan> Made better<tspan>.</tspan></tspan></text></svg>