<svg version="1.1" id="Layer_1" xmlns="http://www.w3.org/2000/svg" xmlns:xlink="http://www.w3.org/1999/xlink" x="0px" y="0px"
	 width="100%" viewBox="0 0 500 500" enable-background="new 0 0 500 500" xml:space="preserve">
<path fill="currentColor" opacity="0" stroke="none" 
	d="
M273.000000,501.000000 
	C182.000015,501.000000 91.500046,501.000000 1.000049,501.000000 
	C1.000032,334.333405 1.000032,167.666794 1.000016,1.000138 
	C167.666565,1.000092 334.333130,1.000092 500.999756,1.000046 
	C500.999847,167.666519 500.999847,334.333038 500.999939,500.999786 
	C425.166656,501.000000 349.333344,501.000000 273.000000,501.000000 
M339.527527,462.021149 
	C352.614410,456.513489 365.315674,450.214081 375.804596,440.481964 
	C420.312103,399.185944 455.169159,350.940277 479.088776,295.046082 
	C488.430634,273.216461 494.950226,250.565582 495.258392,226.533798 
	C495.519287,206.190109 491.101410,187.356140 478.316467,170.875473 
	C461.584839,149.307175 445.213348,127.459602 428.670837,105.744415 
	C411.898834,83.727844 394.859985,61.962265 372.972382,44.591560 
	C346.710999,23.749655 317.751709,15.006663 284.797363,25.311758 
	C246.111328,37.409210 207.348328,49.303219 168.953918,62.277481 
	C136.280121,73.318634 108.971077,92.786354 86.391182,118.956894 
	C67.455841,140.903320 55.632484,166.538269 46.475601,193.666702 
	C31.978390,236.616562 22.768385,280.311707 28.031023,325.985901 
	C30.694223,349.099731 37.493080,370.851227 50.805065,390.204498 
	C74.777054,425.055634 108.618599,446.573212 147.576736,460.763153 
	C173.798904,470.314178 200.980576,475.553680 228.899689,477.332672 
	C266.602600,479.734985 303.318756,475.688751 339.527527,462.021149 
z"/>
<path fill="#FF311E" opacity="1.000000" stroke="none" 
	d="
M339.173187,462.176819 
	C303.318756,475.688751 266.602600,479.734985 228.899689,477.332672 
	C200.980576,475.553680 173.798904,470.314178 147.576736,460.763153 
	C108.618599,446.573212 74.777054,425.055634 50.805065,390.204498 
	C37.493080,370.851227 30.694223,349.099731 28.031023,325.985901 
	C22.768385,280.311707 31.978390,236.616562 46.475601,193.666702 
	C55.632484,166.538269 67.455841,140.903320 86.391182,118.956894 
	C108.971077,92.786354 136.280121,73.318634 168.953918,62.277481 
	C207.348328,49.303219 246.111328,37.409210 284.797363,25.311758 
	C317.751709,15.006663 346.710999,23.749655 372.972382,44.591560 
	C394.859985,61.962265 411.898834,83.727844 428.670837,105.744415 
	C445.213348,127.459602 461.584839,149.307175 478.316467,170.875473 
	C491.101410,187.356140 495.519287,206.190109 495.258392,226.533798 
	C494.950226,250.565582 488.430634,273.216461 479.088776,295.046082 
	C455.169159,350.940277 420.312103,399.185944 375.804596,440.481964 
	C365.315674,450.214081 352.614410,456.513489 339.173187,462.176819 
M73.844383,223.419449 
	C70.548073,220.098434 66.413696,220.325775 62.706909,221.791458 
	C61.135441,222.412827 59.607365,225.387787 59.578964,227.315430 
	C59.335926,243.809402 59.339840,260.309540 59.506168,276.805450 
	C59.554977,281.646210 61.685612,282.977112 67.187561,283.033447 
	C71.529518,283.077911 74.337288,281.559174 74.385841,276.810577 
	C74.445465,270.978668 74.436630,265.146057 74.450218,259.313751 
	C74.458015,255.964386 74.451637,252.614975 74.451637,249.265594 
	C79.121361,253.925354 82.522652,258.804749 86.173485,263.489685 
	C89.645210,267.944794 94.547112,268.326111 98.172775,264.505524 
	C99.765762,262.826904 101.002831,260.806549 102.370445,258.918854 
	C104.907600,255.416855 107.421944,251.898346 109.945793,248.386719 
	C110.835960,258.095551 110.919533,267.244751 110.801445,276.391357 
	C110.740456,281.115234 113.071129,282.941559 117.526115,283.027435 
	C123.336281,283.139496 125.630196,281.826294 125.694145,276.791260 
	C125.905762,260.130096 125.833549,243.464294 125.738121,226.801025 
	C125.716682,223.055954 123.546822,221.194321 119.685959,220.961655 
	C115.340988,220.699829 112.104622,221.896881 109.450226,225.649124 
	C104.077553,233.243958 98.297089,240.550339 92.505226,248.213211 
	C86.302422,239.977966 80.295158,232.002335 73.844383,223.419449 
M269.588013,237.193863 
	C268.905975,238.884323 268.102142,240.536758 267.560547,242.271072 
	C261.328644,262.226929 274.905609,282.988068 294.749054,283.894653 
	C309.670288,284.576324 322.748199,274.476013 325.910980,259.827698 
	C329.467682,243.355057 321.751434,228.091843 306.960846,222.343124 
	C293.066650,216.942825 278.193878,222.639511 269.588013,237.193863 
M379.736877,240.046661 
	C376.502411,227.011276 368.880554,221.007797 355.536804,220.993561 
	C350.214813,220.987869 344.892090,220.939194 339.571075,221.011261 
	C333.814331,221.089203 332.232697,222.657257 332.186920,228.516541 
	C332.111572,238.162064 332.158691,247.808578 332.163971,257.454681 
	C332.167511,263.940674 332.019135,270.432892 332.257141,276.910614 
	C332.431519,281.656494 334.489624,282.987518 340.029144,283.030304 
	C344.320465,283.063446 347.190552,281.722076 347.138428,276.846222 
	C347.101532,273.394073 347.131287,269.941254 347.131287,266.007660 
	C350.239868,266.007660 352.877960,266.232819 355.461243,265.952667 
	C358.965454,265.572601 360.969849,266.713226 362.044891,270.223145 
	C363.059692,273.536469 364.670624,276.674011 366.104462,279.850464 
	C368.110779,284.295197 371.475891,284.130371 375.260986,282.441559 
	C378.885773,280.824219 381.829132,278.808624 379.914185,274.138428 
	C378.277344,270.146484 376.388519,266.249908 374.937286,262.194458 
	C374.479370,260.914886 374.531464,258.858551 375.279663,257.841705 
	C379.037292,252.735001 380.329834,247.091339 379.736877,240.046661 
M153.819550,234.536865 
	C153.822571,248.187088 153.775650,261.837585 153.851349,275.487396 
	C153.885223,281.595215 155.324432,282.960266 161.134079,283.002472 
	C167.069931,283.045593 168.707016,281.415955 168.812225,275.254669 
	C168.862549,272.308319 168.820892,269.360443 168.820892,266.219208 
	C173.426453,266.219208 177.531815,266.219208 181.682785,266.219208 
	C183.439331,270.267303 185.130417,274.242310 186.884888,278.189178 
	C189.395828,283.837891 191.552307,284.712646 196.928085,282.348053 
	C202.292511,279.988434 203.063385,277.893768 200.623505,272.062286 
	C199.469376,269.303864 198.331604,266.529327 196.988235,263.861938 
	C195.610138,261.125610 195.704361,259.101624 197.621841,256.273987 
	C202.696030,248.791183 202.824829,240.507004 198.629715,232.601120 
	C194.569260,224.949020 187.751953,221.164413 179.046921,221.008102 
	C174.886597,220.933411 170.723846,220.994110 166.562195,220.994095 
	C153.826843,220.994064 153.826843,220.994186 153.819550,234.536865 
M212.438187,273.003143 
	C219.112350,282.172180 228.183487,285.655121 239.113815,283.342194 
	C251.069275,280.812317 258.155548,272.485931 259.694397,260.977905 
	C261.204529,249.684631 260.639923,238.090683 260.637329,226.628769 
	C260.636108,221.387146 256.611115,220.918839 252.456940,220.970306 
	C248.285858,221.022003 245.796494,222.625595 245.807495,227.137131 
	C245.827393,235.292419 245.978134,243.454727 245.685349,251.600113 
	C245.556351,255.189194 244.896851,258.890045 243.723267,262.278687 
	C242.147446,266.828827 238.351212,268.972839 233.584351,268.917816 
	C228.626083,268.860596 224.798126,266.559357 223.265717,261.758057 
	C222.274994,258.653961 221.864334,255.271301 221.761230,251.995605 
	C221.494370,243.517899 221.681473,235.025864 221.412750,226.548248 
	C221.245514,221.272675 217.407883,220.921875 213.227448,220.938522 
	C208.927139,220.955658 206.501511,222.802597 206.477478,227.092255 
	C206.422485,236.908325 205.958542,246.780045 206.848465,256.520630 
	C207.342285,261.925690 210.225159,267.112488 212.438187,273.003143 
M409.606476,269.595551 
	C411.602203,269.595551 413.647705,269.881805 415.584778,269.544708 
	C422.900024,268.271698 427.120148,271.013885 429.530487,278.214539 
	C431.479218,284.036163 434.128326,284.688568 439.043488,282.419281 
	C444.650024,279.830872 445.588928,277.432220 442.909088,271.827393 
	C435.747559,256.849243 428.497833,241.913284 421.328583,226.938797 
	C419.825623,223.799561 418.094330,221.108459 414.122742,220.996750 
	C409.997223,220.880707 407.775574,223.364899 406.171936,226.709671 
	C398.850922,241.979294 391.500183,257.234894 384.246979,272.536743 
	C381.860229,277.572052 382.863953,279.813263 388.182159,282.304108 
	C393.090942,284.603210 395.236450,283.856689 397.772522,278.930664 
	C398.380066,277.750519 399.094055,276.583191 399.449463,275.322632 
	C400.789673,270.568939 403.728271,268.535797 409.606476,269.595551 
M133.005005,280.210724 
	C135.926620,284.310455 140.105362,283.385437 143.872757,282.428925 
	C147.613358,281.479218 147.150513,277.900177 147.153915,274.928070 
	C147.171783,259.304230 147.205658,243.680130 147.127457,228.056641 
	C147.099304,222.431793 145.562180,221.058746 139.948318,220.995148 
	C134.106232,220.928970 132.267181,222.507751 132.193298,228.121704 
	C132.086121,236.264679 132.090790,244.410843 132.179291,252.554199 
	C132.276596,261.509338 132.522964,270.462860 133.005005,280.210724 
z"/>
<path fill="#FFFAFA" opacity="1.000000" stroke="none" 
	d="
M74.066147,223.723083 
	C80.295158,232.002335 86.302422,239.977966 92.505226,248.213211 
	C98.297089,240.550339 104.077553,233.243958 109.450226,225.649124 
	C112.104622,221.896881 115.340988,220.699829 119.685959,220.961655 
	C123.546822,221.194321 125.716682,223.055954 125.738121,226.801025 
	C125.833549,243.464294 125.905762,260.130096 125.694145,276.791260 
	C125.630196,281.826294 123.336281,283.139496 117.526115,283.027435 
	C113.071129,282.941559 110.740456,281.115234 110.801445,276.391357 
	C110.919533,267.244751 110.835960,258.095551 109.945793,248.386719 
	C107.421944,251.898346 104.907600,255.416855 102.370445,258.918854 
	C101.002831,260.806549 99.765762,262.826904 98.172775,264.505524 
	C94.547112,268.326111 89.645210,267.944794 86.173485,263.489685 
	C82.522652,258.804749 79.121361,253.925354 74.451637,249.265594 
	C74.451637,252.614975 74.458015,255.964386 74.450218,259.313751 
	C74.436630,265.146057 74.445465,270.978668 74.385841,276.810577 
	C74.337288,281.559174 71.529518,283.077911 67.187561,283.033447 
	C61.685612,282.977112 59.554977,281.646210 59.506168,276.805450 
	C59.339840,260.309540 59.335926,243.809402 59.578964,227.315430 
	C59.607365,225.387787 61.135441,222.412827 62.706909,221.791458 
	C66.413696,220.325775 70.548073,220.098434 74.066147,223.723083 
z"/>
<path fill="#FFFBFA" opacity="1.000000" stroke="none" 
	d="
M269.759094,236.860382 
	C278.193878,222.639511 293.066650,216.942825 306.960846,222.343124 
	C321.751434,228.091843 329.467682,243.355057 325.910980,259.827698 
	C322.748199,274.476013 309.670288,284.576324 294.749054,283.894653 
	C274.905609,282.988068 261.328644,262.226929 267.560547,242.271072 
	C268.102142,240.536758 268.905975,238.884323 269.759094,236.860382 
M284.489594,262.881592 
	C290.865570,269.298523 297.166504,270.639801 303.643829,266.958862 
	C310.273499,263.191315 313.161621,255.810547 311.211395,247.619537 
	C309.561829,240.691177 303.544434,235.666840 296.664581,235.473267 
	C290.120087,235.289139 283.896637,239.944275 281.843018,246.610794 
	C280.130920,252.168610 280.774658,257.415314 284.489594,262.881592 
z"/>
<path fill="#FFFBFB" opacity="1.000000" stroke="none" 
	d="
M379.784973,240.475906 
	C380.329834,247.091339 379.037292,252.735001 375.279663,257.841705 
	C374.531464,258.858551 374.479370,260.914886 374.937286,262.194458 
	C376.388519,266.249908 378.277344,270.146484 379.914185,274.138428 
	C381.829132,278.808624 378.885773,280.824219 375.260986,282.441559 
	C371.475891,284.130371 368.110779,284.295197 366.104462,279.850464 
	C364.670624,276.674011 363.059692,273.536469 362.044891,270.223145 
	C360.969849,266.713226 358.965454,265.572601 355.461243,265.952667 
	C352.877960,266.232819 350.239868,266.007660 347.131287,266.007660 
	C347.131287,269.941254 347.101532,273.394073 347.138428,276.846222 
	C347.190552,281.722076 344.320465,283.063446 340.029144,283.030304 
	C334.489624,282.987518 332.431519,281.656494 332.257141,276.910614 
	C332.019135,270.432892 332.167511,263.940674 332.163971,257.454681 
	C332.158691,247.808578 332.111572,238.162064 332.186920,228.516541 
	C332.232697,222.657257 333.814331,221.089203 339.571075,221.011261 
	C344.892090,220.939194 350.214813,220.987869 355.536804,220.993561 
	C368.880554,221.007797 376.502411,227.011276 379.784973,240.475906 
M352.526337,251.114105 
	C354.190338,251.109802 355.859222,251.185730 357.517426,251.085739 
	C362.013397,250.814590 364.822449,248.126434 365.016693,244.009048 
	C365.222076,239.655029 362.419312,236.323715 357.904266,236.007202 
	C354.477600,235.766983 351.020599,235.959564 347.429199,235.959564 
	C347.429199,241.219727 347.429199,245.950714 347.429199,250.887451 
	C348.991486,250.972565 350.289490,251.043274 352.526337,251.114105 
z"/>
<path fill="#FFFCFC" opacity="1.000000" stroke="none" 
	d="
M153.819519,234.044800 
	C153.826843,220.994186 153.826843,220.994064 166.562195,220.994095 
	C170.723846,220.994110 174.886597,220.933411 179.046921,221.008102 
	C187.751953,221.164413 194.569260,224.949020 198.629715,232.601120 
	C202.824829,240.507004 202.696030,248.791183 197.621841,256.273987 
	C195.704361,259.101624 195.610138,261.125610 196.988235,263.861938 
	C198.331604,266.529327 199.469376,269.303864 200.623505,272.062286 
	C203.063385,277.893768 202.292511,279.988434 196.928085,282.348053 
	C191.552307,284.712646 189.395828,283.837891 186.884888,278.189178 
	C185.130417,274.242310 183.439331,270.267303 181.682785,266.219208 
	C177.531815,266.219208 173.426453,266.219208 168.820892,266.219208 
	C168.820892,269.360443 168.862549,272.308319 168.812225,275.254669 
	C168.707016,281.415955 167.069931,283.045593 161.134079,283.002472 
	C155.324432,282.960266 153.885223,281.595215 153.851349,275.487396 
	C153.775650,261.837585 153.822571,248.187088 153.819519,234.044800 
M186.351959,244.366867 
	C187.010666,236.476105 180.496338,234.526031 169.139755,236.610016 
	C169.139755,241.350235 169.139755,246.069397 169.139755,251.102509 
	C172.577011,251.102509 175.700562,251.175507 178.819275,251.084030 
	C182.709137,250.969910 185.475632,249.310059 186.351959,244.366867 
z"/>
<path fill="#FFF9F9" opacity="1.000000" stroke="none" 
	d="
M212.234711,272.700378 
	C210.225159,267.112488 207.342285,261.925690 206.848465,256.520630 
	C205.958542,246.780045 206.422485,236.908325 206.477478,227.092255 
	C206.501511,222.802597 208.927139,220.955658 213.227448,220.938522 
	C217.407883,220.921875 221.245514,221.272675 221.412750,226.548248 
	C221.681473,235.025864 221.494370,243.517899 221.761230,251.995605 
	C221.864334,255.271301 222.274994,258.653961 223.265717,261.758057 
	C224.798126,266.559357 228.626083,268.860596 233.584351,268.917816 
	C238.351212,268.972839 242.147446,266.828827 243.723267,262.278687 
	C244.896851,258.890045 245.556351,255.189194 245.685349,251.600113 
	C245.978134,243.454727 245.827393,235.292419 245.807495,227.137131 
	C245.796494,222.625595 248.285858,221.022003 252.456940,220.970306 
	C256.611115,220.918839 260.636108,221.387146 260.637329,226.628769 
	C260.639923,238.090683 261.204529,249.684631 259.694397,260.977905 
	C258.155548,272.485931 251.069275,280.812317 239.113815,283.342194 
	C228.183487,285.655121 219.112350,282.172180 212.234711,272.700378 
z"/>
<path fill="#FFFBFB" opacity="1.000000" stroke="none" 
	d="
M409.124603,269.595428 
	C403.728271,268.535797 400.789673,270.568939 399.449463,275.322632 
	C399.094055,276.583191 398.380066,277.750519 397.772522,278.930664 
	C395.236450,283.856689 393.090942,284.603210 388.182159,282.304108 
	C382.863953,279.813263 381.860229,277.572052 384.246979,272.536743 
	C391.500183,257.234894 398.850922,241.979294 406.171936,226.709671 
	C407.775574,223.364899 409.997223,220.880707 414.122742,220.996750 
	C418.094330,221.108459 419.825623,223.799561 421.328583,226.938797 
	C428.497833,241.913284 435.747559,256.849243 442.909088,271.827393 
	C445.588928,277.432220 444.650024,279.830872 439.043488,282.419281 
	C434.128326,284.688568 431.479218,284.036163 429.530487,278.214539 
	C427.120148,271.013885 422.900024,268.271698 415.584778,269.544708 
	C413.647705,269.881805 411.602203,269.595551 409.124603,269.595428 
M410.862335,251.552139 
	C410.123352,253.154739 409.384369,254.757339 408.473083,256.733643 
	C412.280579,256.733643 415.436676,256.733643 419.103912,256.733643 
	C417.221680,252.950073 415.558136,249.606125 413.679321,245.829422 
	C412.632263,247.907059 411.888763,249.382370 410.862335,251.552139 
z"/>
<path fill="#FFFBFA" opacity="1.000000" stroke="none" 
	d="
M132.854706,279.813904 
	C132.522964,270.462860 132.276596,261.509338 132.179291,252.554199 
	C132.090790,244.410843 132.086121,236.264679 132.193298,228.121704 
	C132.267181,222.507751 134.106232,220.928970 139.948318,220.995148 
	C145.562180,221.058746 147.099304,222.431793 147.127457,228.056641 
	C147.205658,243.680130 147.171783,259.304230 147.153915,274.928070 
	C147.150513,277.900177 147.613358,281.479218 143.872757,282.428925 
	C140.105362,283.385437 135.926620,284.310455 132.854706,279.813904 
z"/>
<path fill="#FF3421" opacity="1.000000" stroke="none" 
	d="
M284.270630,262.580963 
	C280.774658,257.415314 280.130920,252.168610 281.843018,246.610794 
	C283.896637,239.944275 290.120087,235.289139 296.664581,235.473267 
	C303.544434,235.666840 309.561829,240.691177 311.211395,247.619537 
	C313.161621,255.810547 310.273499,263.191315 303.643829,266.958862 
	C297.166504,270.639801 290.865570,269.298523 284.270630,262.580963 
z"/>
<path fill="#FF3622" opacity="1.000000" stroke="none" 
	d="
M352.056946,251.114044 
	C350.289490,251.043274 348.991486,250.972565 347.429199,250.887451 
	C347.429199,245.950714 347.429199,241.219727 347.429199,235.959564 
	C351.020599,235.959564 354.477600,235.766983 357.904266,236.007202 
	C362.419312,236.323715 365.222076,239.655029 365.016693,244.009048 
	C364.822449,248.126434 362.013397,250.814590 357.517426,251.085739 
	C355.859222,251.185730 354.190338,251.109802 352.056946,251.114044 
z"/>
<path fill="#FF331F" opacity="1.000000" stroke="none" 
	d="
M186.302872,244.784256 
	C185.475632,249.310059 182.709137,250.969910 178.819275,251.084030 
	C175.700562,251.175507 172.577011,251.102509 169.139755,251.102509 
	C169.139755,246.069397 169.139755,241.350235 169.139755,236.610016 
	C180.496338,234.526031 187.010666,236.476105 186.302872,244.784256 
z"/>
<path fill="#FF3E2B" opacity="1.000000" stroke="none" 
	d="
M411.003784,251.204910 
	C411.888763,249.382370 412.632263,247.907059 413.679321,245.829422 
	C415.558136,249.606125 417.221680,252.950073 419.103912,256.733643 
	C415.436676,256.733643 412.280579,256.733643 408.473083,256.733643 
	C409.384369,254.757339 410.123352,253.154739 411.003784,251.204910 
z"/>
</svg>