<?xml version="1.0" encoding="UTF-8" standalone="no"?>
<!-- Generator: Adobe Illustrator 23.0.1, SVG Export Plug-In . SVG Version: 6.00 Build 0)  -->

<svg
   version="1.1"
   x="0px"
   y="0px"
   viewBox="0 0 819.91791 844.35553"
   xml:space="preserve"
   id="svg118"
   width="819.91791"
   height="844.35553"
   xmlns="http://www.w3.org/2000/svg"
   xmlns:svg="http://www.w3.org/2000/svg"><defs
   id="defs118" />
<style
   type="text/css"
   id="style1">
	.st0{fill:#053b50;}
	.st1{fill:#FFFFFF;}
	.st2{fill:#d8b232;}
	.st3{fill:#FFF3A1;}
	.st4{fill:#F2BDBA;}
	.st5{fill:#93B4F6;}
	.st6{fill:#74BAAB;}
</style>
<g
   id="BG"
   transform="translate(-550.03979,-117.83)">
	<g
   id="g2">
		<g
   id="g1">
			<circle
   class="st0"
   cx="958.90997"
   cy="513.35999"
   r="377.5"
   id="circle1" />
		</g>
	</g>
	<path
   class="st1"
   d="m 630.55,433.08 -1.97,-0.34 c 0.1,-0.58 10.48,-58.45 50.61,-102.83 l 1.48,1.34 c -39.74,43.95 -50.02,101.26 -50.12,101.83 z"
   id="path2" />
	<path
   class="st1"
   d="m 685.25,293.23 -1.65,-1.12 c 0.32,-0.47 32.44,-47.06 83.97,-69.79 l 0.81,1.83 c -50.99,22.49 -82.81,68.62 -83.13,69.08 z"
   id="path3" />
	<path
   class="st1"
   d="m 1314.37,506.51 h -2 c 0,-71.77 -32.57,-136.82 -32.9,-137.47 l 1.78,-0.9 c 0.33,0.65 33.12,66.11 33.12,138.37 z"
   id="path4" />
	<path
   class="st1"
   d="m 1275.43,469.09 c -1.54,-28.59 -10.85,-52.65 -10.94,-52.89 l 1.86,-0.73 c 0.09,0.24 9.51,24.59 11.08,53.51 z"
   id="path5" />
	<g
   id="g23">
		<path
   d="m 567.81,419.48 -1.96,-0.42 c 0.12,-0.58 12.75,-58.15 57.01,-116.33 l 1.59,1.21 c -43.99,57.83 -56.52,114.97 -56.64,115.54 z"
   id="path6" />
		<path
   d="m 630.33,258.59 -1.53,-1.28 c 0.12,-0.14 11.85,-14.12 26.81,-28.24 l 1.37,1.45 c -14.88,14.04 -26.54,27.93 -26.65,28.07 z"
   id="path7" />
		<path
   d="m 679.79,230.45 -1.52,-1.3 c 0.17,-0.2 17.31,-20 50.02,-42.32 30.17,-20.59 80.15,-47.61 146.96,-59.46 l 0.35,1.97 c -66.46,11.79 -116.18,38.67 -146.18,59.14 -32.5,22.17 -49.47,41.77 -49.63,41.97 z"
   id="path8" />
		<path
   d="m 1335.45,384.7 c -16.83,-68.6 -70.23,-127.82 -70.77,-128.41 l 1.48,-1.35 c 0.54,0.59 54.28,60.2 71.23,129.28 z"
   id="path9" />
		<path
   d="m 1350.28,484.57 c -1.99,-24.95 -6.75,-46.79 -10.39,-60.72 l 1.94,-0.51 c 3.66,14.01 8.45,35.97 10.45,61.07 z"
   id="path10" />
		<path
   d="m 1361.13,578.87 -1.95,-0.45 c 1.72,-7.44 3.22,-15.51 4.46,-23.98 l 1.98,0.29 c -1.25,8.52 -2.77,16.64 -4.49,24.14 z"
   id="path11" />
		<path
   d="m 1369.32,517.3 -2,-0.11 c 1.57,-28.8 0.18,-56.57 -3.47,-69.1 l 1.92,-0.56 c 3.71,12.73 5.13,40.77 3.55,69.77 z"
   id="path12" />
		<path
   d="m 1337.85,608.41 -1.9,-0.61 c 3.51,-10.92 6.49,-26.12 8.86,-45.15 l 1.98,0.25 c -2.38,19.15 -5.39,34.46 -8.94,45.51 z"
   id="path13" />
		<path
   d="m 1348.59,546.19 -1.99,-0.18 c 0.73,-7.92 1.05,-13.18 1.05,-13.24 l 2,0.12 c -0.01,0.05 -0.33,5.36 -1.06,13.3 z"
   id="path14" />
		<path
   d="M 1146.09,169.33 C 1093.68,135.97 1005.9,124.51 1005.02,124.4 l 0.25,-1.98 c 0.22,0.03 22.45,2.89 50.9,9.86 26.28,6.44 63.39,17.8 91,35.37 z"
   id="path15" />
		<path
   d="m 1102.37,133.42 c -14.06,-6.2 -46.73,-13.57 -47.06,-13.64 l 0.44,-1.95 c 0.33,0.07 33.19,7.48 47.43,13.77 z"
   id="path16" />
		<path
   d="m 676.91,801.94 c -4.24,-3.35 -8.43,-6.86 -12.45,-10.42 l 1.33,-1.5 c 4,3.54 8.16,7.03 12.37,10.35 z"
   id="path17" />
		<path
   d="m 643.12,770.54 c -57.31,-62.5 -68.29,-130.7 -68.4,-131.38 l 1.98,-0.3 c 0.1,0.68 11.01,68.3 67.89,130.33 z"
   id="path18" />
		<path
   d="m 658.83,765.37 c -20.52,-16.92 -39.7,-55.53 -39.89,-55.92 l 1.79,-0.88 c 0.19,0.38 19.19,38.61 39.37,55.26 z"
   id="path19" />
		<path
   d="m 857.59,893.77 c -29.17,-5.58 -57.99,-15.5 -85.66,-29.49 l 0.9,-1.79 c 27.51,13.9 56.15,23.76 85.14,29.31 z"
   id="path20" />
		<path
   d="m 736.59,843.67 c -14.34,-9.6 -22.37,-16.72 -22.45,-16.79 l 1.33,-1.49 c 0.08,0.07 8.02,7.11 22.23,16.62 z"
   id="path21" />
		<path
   d="m 977.02,914.78 -0.1,-2 c 7.4,-0.36 14.64,-0.92 21.51,-1.66 l 0.22,1.99 c -6.91,0.75 -14.19,1.31 -21.63,1.67 z"
   id="path22" />
		<path
   d="m 950.73,915.24 c -45.78,-0.5 -84.14,-7.36 -84.53,-7.43 l 0.36,-1.97 c 0.38,0.07 38.59,6.91 84.19,7.4 z"
   id="path23" />
	</g>
	<path
   class="st1"
   d="M 731.93,784.04 C 668.85,739.81 645.61,669.65 645.38,668.95 l 1.9,-0.62 c 0.23,0.7 23.28,70.24 85.8,114.07 z"
   id="path24" />
	<path
   class="st1"
   d="m 869.85,860.57 c -49.51,-8.7 -99.08,-41.84 -99.57,-42.18 l 1.12,-1.66 c 0.49,0.33 49.72,33.24 98.8,41.86 z"
   id="path25" />
	<path
   class="st1"
   d="m 788.4,800.46 c -13.18,-4.13 -29.09,-18.88 -29.76,-19.5 L 760,779.5 c 0.16,0.15 16.25,15.06 28.99,19.06 z"
   id="path26" />
</g>
<g
   id="Astro"
   transform="translate(-550.03979,-117.83)">
	<g
   id="g27">
		<path
   class="st1"
   d="m 1025.28,189.98 c -10.05,6.12 -53.76,31.7 -85.31,55.76 -5.02,3.83 -8.76,9.08 -10.73,15.08 -4.09,12.49 -7.76,26.36 -8.8,30.38 -0.24,0.93 -0.12,1.92 0.36,2.75 2.95,5.2 19.12,23.1 107.22,54.26 l 20.68,-44.73 c 0,0 -13.06,-83.23 -17.07,-111.03 -0.41,-2.79 -3.62,-4.13 -6.35,-2.47 z"
   id="path27" />
	</g>
	<g
   id="g28">
		<path
   class="st2"
   d="m 1224.26,690.22 -108.45,12.74 c -17.59,2.07 -32.97,12.84 -40.92,28.67 l -48.54,97.53 c -2.07,4.12 -6.67,6.31 -11.17,5.32 l -17.25,-3.8 c -12.1,-2.67 -24.19,4.51 -27.64,16.41 l -2.7,9.33 c -1.5,5.17 0.86,10.67 5.64,13.15 l 79.63,41.27 c 5.28,2.73 11.77,0.9 14.84,-4.19 l 80.03,-130.33 110.61,-6.97 z"
   id="path28" />
	</g>
	<g
   id="g29">
		<polygon
   class="st2"
   points="1162.88,606.94 1170.79,587.1 1236.22,590.61 1212.45,680.44 "
   id="polygon28" />
	</g>
	<g
   id="g30">
		<path
   class="st2"
   d="m 1154.62,558.99 c 0,0 7.19,-18.61 7.08,-28.72 -0.14,-13.45 1.32,-40.82 -7.25,-39.53 -5.22,0.78 -6.78,13.44 -7.42,18.88 -0.25,2.15 -1.08,4.21 -2.52,5.83 -2.05,2.31 -4.96,3.2 -6.49,-7.27 -2.49,-17.06 -1.95,-49.89 -11.86,-43.88 -5.02,3.05 -2.33,32.86 -5.17,31.54 -2.84,-1.32 -2.49,-46.34 -14.57,-41.43 -3.99,1.62 -3.09,23.13 -2.27,35.16 0.05,0.67 -0.93,0.81 -1.08,0.15 -1.63,-7.27 -4.13,-17.86 -6.13,-24.07 -2.15,-6.69 -7.15,-3.19 -7.15,1.69 0,10.5 1.78,32.61 1.78,32.61 z"
   id="path29" />
	</g>
	<g
   id="g31">
		<path
   class="st3"
   d="m 1322.57,618.72 18,31 -42,135 c -3.94,13.69 -19.6,22.23 -33.66,19.89 l -54.06,-6 c -6.94,-1.16 -9.43,2.4 -7,9 l 23.33,107.05 c 3.96,10.77 -2.18,22.61 -13.27,25.58 l -80.44,21.5 c -7.79,2.08 -15.57,-3.36 -16.28,-11.39 l -4.63,-27.63 c -0.19,-2.11 -0.79,-10.58 4,-14 7,-5 18,-12 18,-12 3.71,-1.99 4.09,-7.94 3,-12 L 1107,765.88 c -4.99,-18.59 6.58,-33 25.57,-36.16 24,-4 64,-13 64,-13 l 17.13,-111.75 c 2.25,-8.87 10.44,-14.94 19.59,-14.5 l 26.28,1.25 z"
   id="path30" />
	</g>
	<g
   id="g33">
		<g
   id="g32">
			
				<circle
   transform="matrix(0.2298,-0.9732,0.9732,0.2298,414.5956,1682.587)"
   class="st3"
   cx="1270.3199"
   cy="579.35999"
   id="ellipse31"
   r="43.049999" />
		</g>
	</g>
	<g
   id="g34">
		<path
   class="st1"
   d="m 879.4,578.86 143.06,-129.42 c 7.39,-6.69 18.2,-6.16 26.95,-1.39 17.69,9.65 48.03,26.9 75.09,56.22 22.72,24.62 60.47,63.71 64.93,96.8 0.51,3.79 -0.81,7.59 -3.46,10.34 -43.62,45.19 -132.35,128.42 -142.27,136.88 -23.48,20.03 -84.37,-25.19 -119.06,-65.51 -14.49,-16.83 -63.37,-86.82 -45.24,-103.92 z"
   id="path33" />
	</g>
	<g
   id="g36">
		<g
   id="g35">
			<path
   class="st3"
   d="m 1345.47,626.64 c -13.28,-13.07 -35.98,-12.29 -49.98,-0.29 l -49.63,45.2 c -2.72,2.26 -6.75,1.91 -9.04,-0.78 l -35.16,-41.1 c -5.66,-6.63 -9.08,-14.87 -9.78,-23.55 l -1.27,-15.67 c -0.09,-1.06 -0.34,-2.1 -0.76,-3.08 l -6.41,-16.5 c -0.88,-2.27 -3.94,-2.55 -5.27,-0.51 -1.8,2.77 -2.78,6.94 -2.78,11.08 0,8 1.88,16.64 -1.12,16.64 -4,0 -8.75,-7.86 -10.78,-15.24 -2.33,-8.49 -3.49,-15.26 -7.6,-19.02 -1.86,-1.7 -5.17,-0.58 -5.68,2.25 -1.19,6.52 0.18,18.8 0.29,25.77 0.03,2 -1.76,1.96 -2.31,-0.47 -1.69,-7.53 -6.3,-30.54 -6.3,-30.54 -0.73,-3.03 -4.91,-3.38 -6.12,-0.5 -3.46,8.27 -2.17,26.26 -1.54,32.95 0.06,0.59 -0.74,0.83 -1.01,0.31 -1.67,-3.12 -4.62,-9.26 -6.73,-17.08 -0.47,-1.74 -2.85,-2.12 -3.73,-0.55 -2.65,4.77 -1.3,16.16 -0.59,20.84 0.07,0.44 -0.53,0.64 -0.75,0.26 -1.15,-2.02 -2.03,-3.93 -2.92,-6.21 -1.15,-2.95 -3.62,-1.26 -3.83,0.61 -0.7,6.31 -1.06,15.33 1.62,26.89 0.97,4.17 4.48,16.68 20.21,35.49 l 84,93 c 15,19 34.22,13.99 45,6 27,-20 76.84,-69.27 76.84,-69.27 18.96,-16 14.99,-45.26 3.13,-56.93 z"
   id="path34" />
		</g>
	</g>
	<g
   id="g37">
		<path
   class="st4"
   d="m 969.83,656.03 c -50.2,-53.66 -76.37,-69.13 -89.15,-70.56 -2.83,-0.32 -5.28,1.89 -5.26,4.74 0.15,26.14 36.97,78.35 49.21,92.59 27.94,32.49 72.91,68.16 101.61,70.31 2.2,0.16 3.98,-1.75 3.73,-3.93 -1.74,-15.34 -13.86,-43.68 -60.14,-93.15 z"
   id="path36" />
	</g>
	<g
   id="g38">
		<path
   class="st4"
   d="m 921.23,294.68 c 3.97,9.56 49.59,38.97 106.77,53.54 l 1.7,-3.67 c -22.19,-19.45 -60.55,-38.97 -89.03,-46.32 -10.44,-2.69 -16.13,-3.94 -19.44,-3.55 z"
   id="path37" />
	</g>
	<path
   d="m 1030.73,209.25 c -5.24,-4.37 -11.47,-7.27 -18.5,-8.62 l 0.38,-1.96 c 7.37,1.42 13.89,4.46 19.4,9.04 z"
   id="path38" />
	<g
   id="g41">
		<g
   id="g40">
			<g
   id="g39">
				<path
   class="st5"
   d="m 1107.19,540.95 -21.17,-17.73 c -3.32,-2.78 -7.63,-4.07 -11.93,-3.55 -17.15,2.06 -61.99,8.09 -77.02,16.35 -5.57,3.06 -17.63,16.42 -17.63,16.42 -4.37,4.53 -4.39,11.7 -0.04,16.26 l 27.52,30.41 c 1.91,2.11 5.13,2.35 7.33,0.55 l 22,-18.02 c 2.38,-1.95 2.62,-5.51 0.52,-7.77 l -4.43,-4.74 c -1.77,-1.66 -0.95,-4.63 1.43,-5.14 l 71.54,-15.36 c 3.56,-0.79 4.69,-5.33 1.88,-7.68 z m -32.97,31.01 c -3.44,-2.44 -7.72,-2.65 -10.96,0.03 l -66.46,54.89 c -4,3.3 -4.25,11.33 -0.86,15.26 2.63,3.05 7.93,9.13 10.5,12.25 4.75,5.77 12.55,5.95 16.38,2.46 l 17.94,-16.35 c 1.63,-1.48 4.15,-1.38 5.65,0.23 l 3.8,4.08 c 2.69,2.82 7.13,2.96 9.99,0.32 l 19.81,-18.3 c 3.75,-3.47 3.78,-9.39 0.05,-12.89 l -1.83,-1.72 c -1.71,-1.6 -1.69,-4.33 0.04,-5.9 l 9.12,-8.31 c 3.4,-3.1 4.61,-10.05 0.32,-14.1 0.01,0 -9.04,-8.78 -13.49,-11.95 z"
   id="path39" />
			</g>
		</g>
	</g>
	<g
   id="g42">
		<path
   d="m 929.34,300.03 c 12.61,9.93 45.57,27.99 86.28,41.2 l 1.34,-2.81 c -16.82,-14.29 -55.13,-32.04 -86.8,-40.06 -0.99,-0.25 -1.63,1.04 -0.82,1.67 z"
   id="path41" />
	</g>
	<g
   id="g43">
		<path
   d="m 883.98,595.86 c 5.72,-7.24 56.26,39.91 73.39,57.38 29.32,29.89 71.9,87.74 61.64,90.44 -6.39,1.68 -45.92,-20.46 -87.65,-67.63 -31.75,-35.9 -50.91,-75.72 -47.38,-80.19 z"
   id="path42" />
	</g>
	<g
   id="g44">
		<path
   class="st2"
   d="m 1221.65,178.66 -1.48,-8.98 c -1.23,-7.47 -8.62,-11.13 -15.76,-8.59 -9.36,3.32 -21.5,7.26 -28.08,12.38 -2.61,2.03 -4.03,5.23 -3.76,8.52 2.41,29.23 5.17,52.01 6.48,62.07 0.46,3.57 -0.72,7.16 -3.22,9.75 l -29.2,30.37 29.61,15.14 55.43,-51.65 z"
   id="path43" />
	</g>
	<g
   id="g45">
		<path
   class="st3"
   d="m 1028.01,348.22 21.18,-45.81 c 3.67,-7.93 11.41,-13.18 20.13,-13.67 l 43.89,-2.43 c 10.8,-0.6 21.31,-3.72 30.69,-9.11 v 0 c 7.68,-4.41 17.13,-4.37 24.77,0.12 v 0 c 5.02,2.95 11.36,2.4 15.8,-1.37 l 15.85,-13.46 c 1.82,-1.55 2.8,-3.86 2.65,-6.24 -0.84,-12.74 -3.51,-54.46 -3.85,-74.8 -0.05,-2.83 1.54,-5.44 4.08,-6.68 10.55,-5.15 27.07,-7.66 39.73,-5.5 3.13,0.53 5.58,3.1 5.78,6.27 0.85,13.88 -8.63,28.75 -8.63,28.75 l 8.35,62.77 c 1.84,13.84 -4.07,27.57 -15.38,35.75 l -52.73,38.12 c -4,2.89 -8.16,5.57 -12.46,8 v 0 c -10.21,5.79 -21.13,10.23 -32.48,13.2 l -40.41,10.57 z"
   id="path44" />
	</g>
	<g
   id="g46">
		<polygon
   class="st2"
   points="1033.27,336.7 1046.18,307.06 1070.73,303.34 1089.81,323.61 1052.83,358.8 "
   id="polygon45" />
	</g>
	<g
   id="g48">
		<g
   id="g47">
			
				<circle
   transform="matrix(0.2529,-0.9675,0.9675,0.2529,524.0682,1252.3867)"
   class="st3"
   cx="1072.92"
   cy="286.87"
   id="ellipse46"
   r="34.400002" />
		</g>
	</g>
	<g
   id="g51">
		<g
   id="g50">
			<g
   id="g49">
				<path
   class="st5"
   d="m 984.88,274.27 6.51,-10.05 c 1.1,-1.7 0.43,-3.98 -1.42,-4.81 l -2.72,-1.22 c -1.64,-0.74 -1.85,-2.98 -0.37,-4.01 l 29.07,-20.15 c 1.47,-1.02 1.14,-3.28 -0.56,-3.85 l -13.31,-4.39 c -1.58,-0.52 -3.3,-0.29 -4.69,0.63 l -28.62,18.95 c -1.76,1.16 -3.18,2.76 -4.14,4.63 l -4.02,7.84 c -2.03,3.96 -0.29,8.81 3.79,10.57 l 16.39,7.09 c 1.49,0.65 3.22,0.12 4.09,-1.23 z m 34.37,-4.44 -1.48,-0.92 c -1.32,-0.82 -1.82,-2.49 -1.18,-3.9 l 1.96,-4.3 c 1.15,-2.52 0.17,-5.5 -2.25,-6.85 l -6.57,-3.66 c -2.58,-1.43 -5.83,-0.5 -7.24,2.09 l -19.85,36.18 c -1.32,2.41 -0.59,5.43 1.69,6.97 l 7.03,4.73 c 2.59,1.74 6.12,0.88 7.63,-1.85 l 5.69,-10.37 c 0.85,-1.54 2.81,-2.06 4.31,-1.15 l 0.78,0.48 c 1.71,1.05 3.95,0.41 4.85,-1.38 l 5.87,-11.6 c 0.82,-1.59 0.27,-3.53 -1.24,-4.47 z"
   id="path48" />
			</g>
		</g>
	</g>
	<g
   id="g53">
		<g
   id="g52">
			<path
   class="st3"
   d="m 1131.76,304.13 v 0 c -9.62,-8.59 -24.29,-8.08 -33.3,1.14 l -26.78,27.42 c -2.09,2.14 -5.17,2.99 -8.06,2.23 l -39.81,-10.45 c -2.75,-0.72 -5.24,-2.2 -7.19,-4.27 l -11.43,-12.12 c -0.95,-1.01 -2.66,-0.83 -3.27,0.41 -0.63,1.27 -1.02,3.35 -0.37,6.72 1.44,7.5 -2.91,7.48 -7.33,3.94 -2.28,-1.82 -5.81,-4.66 -8.69,-6.99 -2.19,-1.77 -5.42,-0.19 -5.43,2.62 -0.02,3.42 0.47,7.34 2.44,9.53 -4.02,12.06 2.73,26.38 13.42,32.16 12.34,6.67 78.85,27.22 78.85,27.22 6.46,1.91 13.45,0.12 18.2,-4.65 l 39.77,-39.94 c 9.76,-9.78 9.29,-25.76 -1.02,-34.97 z"
   id="path51" />
		</g>
	</g>
	<g
   id="g55">
		<g
   id="g54">
			<path
   d="m 1052.16,264.09 c -4.26,3.09 -7.58,7.54 -9.55,12.84 -4.44,11.95 -0.25,24.79 9.11,32.46 5.04,4.13 12.73,5.11 20.37,0.39 4.97,-3.07 8.73,-8.01 10.91,-13.87 3.82,-10.27 1.24,-20.92 -5.58,-28.55 -5.6,-6.25 -18.16,-8.43 -25.26,-3.27 z"
   id="path53" />
		</g>
	</g>
	<g
   id="g56">
		<path
   class="st1"
   d="m 803.13,651.44 c -3.82,-14.56 -8.07,-33.32 -10.31,-39.69 -0.09,-0.25 -0.4,-0.94 -0.63,-1.09 -2.01,-1.34 -13.81,-6.99 -27.47,-4.71 -4.23,0.71 -18.75,-0.64 -24.56,3.77 -1.8,1.36 -2.48,3.66 -2.64,5.91 -0.82,12.13 -2.84,49.61 -2.5,62.26 0.06,2.27 1.62,4.31 3.85,4.76 24.61,5.01 53.23,2.7 65.98,-6.93 1.41,-1.07 2.2,-2.76 2.04,-4.53 -0.32,-3.39 -1.2,-10 -3.76,-19.75 z"
   id="path55" />
	</g>
	<g
   id="g57">
		<path
   class="st2"
   d="M 662.51,554.31 621.85,541.6 c -2.11,-0.66 -3.43,-2.76 -3.12,-4.95 l 6.28,-43.93 c 0.44,-3.1 -1.71,-5.97 -4.81,-6.42 l -25.4,-3.88 c -1.19,-0.17 -3.75,0.72 -3.75,4.14 0,1.67 0.46,2.6 1.31,3.62 l 4.59,5.53 c 0.86,1.03 1.23,2.39 1.01,3.71 l -5.43,33.6 18.59,39.59 45.17,4.83 z"
   id="path56" />
	</g>
	<g
   id="g58">
		<path
   class="st3"
   d="m 582.18,497.63 35.34,55.59 c 0.95,1.5 2.47,2.56 4.2,2.95 l 7.92,1.76 c 2.63,0.58 5.38,0.12 7.67,-1.28 l 3.06,-1.87 c 6.07,-3.72 13.46,-4.59 20.23,-2.38 l 48.48,15.81 -14.17,44.19 -47.8,-11.66 c -4.15,-1.01 -8.23,-2.25 -12.24,-3.72 -5.96,-2.18 -14.68,-5.51 -19.99,-8.12 -13.69,-6.73 -18.18,-11.97 -20.41,-16.15 -7.09,-13.29 -24.61,-43.41 -26.82,-46.97 -2.87,-4.62 -9.18,-5.02 -12.53,-5.89 -2.07,-0.54 -3.59,-1.45 -4.43,-3.42 l -0.43,-1 c -0.51,-1.19 -0.11,-2.57 0.95,-3.31 l 23.22,-16.22 c 2.58,-1.8 6.15,-1.03 7.75,1.69 z"
   id="path57" />
	</g>
	<g
   id="g59">
		<path
   class="st2"
   d="m 730.7,598.46 42.78,-0.03 c 3.49,-0.02 7.09,1.02 8.93,3.13 1.1,1.26 3.06,3.98 4.1,5.29 0.72,0.92 0.46,2.11 -0.58,1.86 l -5.19,-1.86 0.92,3.18 c 0.63,1.72 -0.94,2.5 -2.27,1.83 l -5.17,-2.44 v 0 c 0.13,1.44 -1.39,2.46 -2.68,1.79 -2.38,-1.24 -3.29,-2.04 -6.58,-4.28 -0.82,-0.55 -1.79,-0.83 -2.78,-0.78 -8.82,0.44 -15.04,1.54 -20.42,3.74 -3.99,1.63 -4.09,5.78 -4.16,7.08 -0.12,2.19 -3.08,8.75 -3.08,8.75 l -27.85,-5.73 -4.93,-18.54 z"
   id="path58" />
	</g>
	<g
   id="g61">
		<g
   id="g60">
			<ellipse
   class="st3"
   cx="714.44"
   cy="580.52002"
   rx="21.959999"
   ry="22.879999"
   id="ellipse59" />
		</g>
	</g>
	<g
   id="g62">
		<path
   class="st1"
   d="m 723.99,634.54 c 0,0 -13.51,23.86 -15.54,37.96 -0.65,4.54 2.66,8.71 7.22,9.25 4.04,0.47 10.29,0.7 19.7,-0.05 -1.36,-4.25 1.74,-42.03 3.07,-57.3 0.18,-2.05 -2.35,-3.15 -3.74,-1.63 z"
   id="path61" />
	</g>
	<g
   id="g63">
		<path
   class="st1"
   d="m 770.11,623.17 c 2.89,6.02 13.8,28.99 16.13,38.21 0.29,1.14 -0.61,2.22 -1.78,2.15 -10.67,-0.71 -20.97,0.85 -25.36,1.65 -1.12,0.2 -2.12,-0.71 -2.03,-1.84 l 2.98,-36.79 c 0.05,-0.65 0.47,-1.22 1.07,-1.46 l 6.77,-2.76 c 0.85,-0.35 1.82,0.02 2.22,0.84 z"
   id="path62" />
	</g>
	<path
   class="st5"
   d="M 783.73,653.95 C 778.79,641.03 769.4,621.71 769.4,621.71 l -2.21,0.9 10.48,40.74 c 2.91,-0.03 5.95,0.15 8.99,0.44 -0.14,-1.94 -1.29,-5.53 -2.93,-9.84"
   id="path63" />
	<g
   id="g64">
		<path
   class="st2"
   d="m 786.67,663.79 c -0.01,-0.17 -8.07,-6.71 -8.07,-6.71 -1.38,-1.05 -3.24,-1.19 -4.75,-0.36 l -15.75,8.63 c 3.8,-0.73 16.18,-2.76 28.57,-1.56 z"
   id="path64" />
	</g>
	<g
   id="g65">
		<path
   d="m 706.99,587.24 c -0.37,3.99 0.52,7.74 2.29,10.89 1.19,2.11 3.43,3.47 5.86,3.47 0.01,0 0.03,0 0.04,0 10.94,0 19.81,-9.24 19.81,-20.64 0,-0.02 0,-0.05 0,-0.07 -0.02,-4.81 -3.46,-8.9 -8.01,-9.66 -1.39,-0.23 -2.84,-0.29 -4.33,-0.16 -8.22,0.75 -14.87,7.62 -15.66,16.17 z"
   id="path65" />
	</g>
	<g
   id="g66">
		<path
   class="st3"
   d="m 777.84,626.09 -4.72,0.55 c -0.38,0.04 -0.57,-0.44 -0.27,-0.67 l 3.96,-2.99 c 1.55,-1.17 0.62,-3.63 -1.31,-3.48 -4.29,0.33 -9.82,0.79 -13.77,1.21 -0.65,0.07 -0.94,-0.81 -0.37,-1.14 1.77,-1.01 2.7,-1.5 4.54,-2.53 2.63,-1.48 0.04,-3.56 -2.97,-3.45 -5.63,0.22 -11.24,3.61 -15.51,3.61 -7.72,0 -29.09,-1.04 -29.09,-1.04 -1.69,-0.06 -3.26,-0.92 -4.21,-2.32 l -17.36,-25.69 c -4.86,-6.42 -14.03,-7.61 -20.36,-2.64 -6.01,4.71 -7.3,13.3 -2.93,19.57 l 25.42,32.57 c 2.35,3.01 5.92,4.83 9.74,4.96 l 55.35,-0.84 c 6.6,0.01 11.24,-5.97 11.83,-9.08 1.7,-1.15 2.91,-2.41 3.78,-3.55 1.01,-1.34 -0.07,-3.25 -1.75,-3.05 z"
   id="path66" />
	</g>
	<g
   id="g67">
		<path
   class="st1"
   d="m 709.73,389.45 c 0,0 4.7,17.66 16.55,41.6 16.8,33.93 25,47.52 33.64,62.09 10.52,17.74 42.64,35.73 104.61,-2.66 64.21,-39.77 54.42,-65.97 50.16,-75.09 -2.52,-5.4 -22.97,-43.62 -39.94,-72.63 -6.62,-11.32 -12.87,-20.99 -17.03,-27.23 -3.46,-5.19 -9.02,-8.56 -15.22,-9.26 -16.9,-1.91 -52.7,-1.72 -89.51,24.95 -50.75,36.78 -43.26,58.23 -43.26,58.23 z"
   id="path67" />
	</g>
	<g
   id="g68">
		<path
   class="st4"
   d="m 917.27,434.81 c 1.69,-8.53 -1.99,-17.25 -9.16,-22.19 -18.18,-12.54 -53.79,-13.08 -98.94,15.44 -49.61,31.34 -50.76,57.86 -43.38,72.55 14.46,14.27 45.64,22.76 98.73,-10.13 38.05,-23.56 50.11,-42.36 52.75,-55.67 z"
   id="path68" />
	</g>
	<g
   id="g69">
		<path
   d="m 775.08,499.64 c -6.17,-8.83 -6.29,-36.49 40.02,-66.28 46.68,-30.03 87.63,-21.49 93.65,-5.3 6.02,16.19 -27.52,45.84 -64.88,64.82 -33.8,17.18 -61.95,16.55 -68.79,6.76 z"
   id="path69" />
	</g>
	<g
   id="g70">
		<path
   d="m 734.98,675.28 c -4.07,-0.01 -8.36,0.21 -12.65,0.55 -9.66,0.77 -10.96,3.81 -10.05,4.74 0.85,0.87 2.14,1.34 3.39,1.48 4.04,0.47 12.38,0.74 21.26,-0.3 -1.95,-2.15 -1.94,-3.19 -1.95,-6.47 z"
   id="path70" />
	</g>
	<g
   id="g71">
		<path
   class="st1"
   d="m 802.91,615.74 c -2.89,-3.57 -4.54,-3.13 -9.82,-3.21 2.24,7.74 6.14,24.05 10.04,38.92 3.9,14.86 3.92,22.42 3.92,22.42 4.9,-0.65 8.85,-1.38 18.44,-2.99 7.83,-1.32 8.53,-7.8 4.48,-13.8 z"
   id="path71" />
	</g>
	<g
   id="g72">
		<path
   class="st4"
   d="m 803.22,676.87 c 0.56,-1.42 -0.36,-2.84 -2.71,-4 -4.67,-2.32 -13.81,-4.14 -31.62,-3.14 -16.42,0.92 -24.75,4.98 -28.94,8.56 -2.24,1.92 -2.09,3.4 -0.11,4.6 24.68,5.99 50.21,2.65 63.38,-6.02 z"
   id="path72" />
	</g>
	<g
   id="g73">
		<path
   d="m 826.51,671.06 c 1.98,-0.51 2.29,-2.63 1.26,-3.37 -0.44,-0.31 -0.96,-0.63 -1.58,-0.95 -4.87,-2.5 -12.65,-2.47 -20.09,-1.58 0.94,5.78 1.11,7.17 0.05,9.13 6.06,-0.42 19.77,-3.08 20.36,-3.23 z"
   id="path73" />
	</g>
	<g
   id="g76">
		<g
   id="g75">
			<g
   id="g74">
				<path
   class="st5"
   d="m 768.87,383.6 c -2.91,-7.32 -3,-15.48 0.43,-20.83 0.8,-1.25 2.27,-3.29 1.53,-4.57 l -6.44,-9.34 c -1.36,-2.36 -4.91,-0.88 -6.54,1.31 -8.03,10.83 -11.03,24.94 -5.03,40 8.81,22.15 25.17,28.63 42.03,24.51 2.73,-0.67 4.06,-3.76 2.65,-6.19 l -4.92,-8.15 c -1.08,-1.87 -3.15,-2.9 -5.31,-2.73 -7.28,0.59 -14.48,-4.17 -18.4,-14.01 z m 48.03,-26.13 c -12.75,-20.19 -33.01,-23.27 -46.28,-18.23 -2.32,0.88 -3.37,3.57 -2.13,5.72 l 7.24,9.81 c 0.86,1.48 2.56,2.2 4.23,1.88 7.08,-1.37 15.78,1.37 21.51,10.03 4.55,6.88 4.54,17.65 -2.68,24.57 -1.58,1.52 -1.42,4.13 -0.32,6.03 l 4.62,7.97 c 1.83,3.15 5.92,3.45 8.71,1.12 13.08,-10.92 14.04,-34.74 5.1,-48.9 z"
   id="path74" />
			</g>
		</g>
	</g>
	<path
   d="m 1102.53,356.06 c -0.69,0 -1.39,-0.18 -2.03,-0.55 -4.9,-2.85 -13.74,-8.42 -17.89,-13.59 -1.17,-1.46 -1.14,-3.59 0.09,-5.07 v 0 l 12.99,-15.66 c 1.37,-1.66 3.8,-1.95 5.53,-0.67 4.08,3.03 11.51,8.63 15.46,12.13 1.59,1.41 1.84,3.75 0.58,5.45 -4.54,6.14 -9.07,12.78 -11.36,16.18 -0.79,1.15 -2.07,1.78 -3.37,1.78 z m -3.73,-34.34 c -0.59,0 -1.18,0.25 -1.58,0.74 l -12.99,15.66 c -0.62,0.75 -0.65,1.81 -0.06,2.54 4.1,5.11 13.49,10.88 17.34,13.12 0.93,0.54 2.12,0.27 2.72,-0.62 2.31,-3.42 6.85,-10.08 11.41,-16.26 0.63,-0.86 0.51,-2.05 -0.3,-2.76 -3.89,-3.45 -11.27,-9.01 -15.33,-12.02 -0.36,-0.27 -0.79,-0.4 -1.21,-0.4 z"
   id="path76" />
	<path
   d="m 1291.54,712.06 c -0.25,0 -0.5,-0.01 -0.76,-0.04 -2.08,-0.2 -3.95,-1.21 -5.26,-2.83 l -21.55,-26.75 c -2.56,-3.18 -2.19,-7.81 0.83,-10.55 l 23.82,-21.53 c 1.57,-1.42 3.59,-2.12 5.69,-1.97 2.11,0.15 4.01,1.12 5.37,2.73 l 22.8,27.17 c 2.73,3.25 2.3,8.11 -0.94,10.84 l -25.06,21.1 c -1.4,1.2 -3.13,1.83 -4.94,1.83 z m -25.39,-38.68 c -2.24,2.03 -2.51,5.45 -0.62,7.81 l 21.55,26.75 c 0.97,1.2 2.35,1.95 3.89,2.1 1.54,0.15 3.04,-0.32 4.22,-1.31 l 25.06,-21.1 c 2.4,-2.02 2.71,-5.62 0.7,-8.03 l -22.8,-27.17 c -1,-1.2 -2.42,-1.92 -3.98,-2.02 -1.56,-0.1 -3.06,0.41 -4.21,1.46 z"
   id="path77" />
	<path
   d="m 1173.82,665.15 -1.56,-1.25 11.23,-14.09 c 0.66,-0.83 0.43,-1.7 -0.01,-2.24 -0.44,-0.54 -1.25,-0.94 -2.2,-0.46 l -12.69,6.53 c -1.66,0.85 -3.54,0.44 -4.7,-1.01 -1.16,-1.45 -1.12,-3.38 0.08,-4.8 l 11.29,-13.33 c 0.7,-0.83 0.47,-1.72 0.03,-2.27 -0.45,-0.55 -1.26,-0.97 -2.22,-0.46 l -32.71,16.65 -0.91,-1.78 32.7,-16.65 c 1.64,-0.87 3.54,-0.47 4.7,0.98 1.17,1.46 1.14,3.39 -0.06,4.82 l -11.29,13.33 c -0.7,0.82 -0.48,1.71 -0.04,2.26 0.44,0.55 1.25,0.97 2.21,0.48 l 12.68,-6.53 c 1.63,-0.84 3.5,-0.45 4.66,0.96 1.16,1.41 1.17,3.33 0.03,4.76 z"
   id="path78" />
	<rect
   x="1200.91"
   y="704.90002"
   transform="matrix(0.3477,-0.9376,0.9376,0.3477,135.1948,1606.1246)"
   width="41.98"
   height="2"
   id="rect78" />
	<rect
   x="1257.61"
   y="693.32001"
   transform="matrix(0.9433,-0.332,0.332,0.9433,-167.2107,458.6169)"
   width="2"
   height="50.709999"
   id="rect79" />
	<rect
   x="1250.1899"
   y="727.51001"
   transform="matrix(0.9893,-0.1461,0.1461,0.9893,-94.6154,190.7698)"
   width="2"
   height="23.77"
   id="rect80" />
	<rect
   x="1217.49"
   y="727.09998"
   transform="matrix(0.1875,-0.9823,0.9823,0.1875,281.8567,1796.9342)"
   width="19.18"
   height="2"
   id="rect81" />
	<rect
   x="1075.09"
   y="338.92999"
   transform="matrix(0.8789,-0.477,0.477,0.8789,-40.4257,556.6789)"
   width="2"
   height="38.040001"
   id="rect82" />
	<rect
   x="1068.8199"
   y="358.45001"
   transform="matrix(0.9611,-0.2763,0.2763,0.9611,-60.1928,309.9211)"
   width="2"
   height="20.280001"
   id="rect83" />
	<rect
   x="1044.42"
   y="357.72"
   transform="matrix(0.0591,-0.9983,0.9983,0.0591,638.3967,1394.7559)"
   width="29.34"
   height="2"
   id="rect84" />
	<path
   d="m 1006.11,355.32 -1.93,-0.52 5.14,-19.22 c 0.32,-1.21 1.41,-1.96 2.66,-1.83 1.24,0.13 2.15,1.1 2.22,2.34 l 0.57,11.51 c 0.02,0.32 0.24,0.42 0.38,0.45 0.14,0.03 0.38,0.04 0.53,-0.25 l 7.42,-14.64 1.78,0.9 -7.41,14.64 c -0.52,1.02 -1.61,1.54 -2.73,1.3 -1.12,-0.24 -1.9,-1.16 -1.96,-2.3 l -0.57,-11.51 c -0.02,-0.36 -0.28,-0.44 -0.43,-0.45 -0.15,-0.02 -0.42,0.01 -0.51,0.35 z"
   id="path84" />
	<rect
   x="1225.16"
   y="243.13"
   transform="matrix(0.1574,-0.9875,0.9875,0.1574,778.4553,1428.2295)"
   width="2"
   height="29.639999"
   id="rect85" />
	<rect
   x="1226.05"
   y="255.19"
   transform="matrix(0.3638,-0.9315,0.9315,0.3638,529.2371,1314.7266)"
   width="2"
   height="29.5"
   id="rect86" />
	<rect
   x="1222.03"
   y="268.44"
   transform="matrix(0.758,-0.6523,0.6523,0.758,111.1803,866.3168)"
   width="2"
   height="29.790001"
   id="rect87" />
	<path
   d="m 1184.32,807.51 -0.11,-0.01 -57.18,-6.54 0.23,-1.99 57.12,6.53 c 1.38,-0.02 2.13,-0.97 2.38,-1.85 0.25,-0.89 0.08,-2.11 -1.14,-2.83 l -65.8,-31.06 c -2.05,-1.22 -2.82,-3.51 -1.96,-5.63 0.86,-2.12 3.02,-3.23 5.24,-2.69 l 52.19,11.61 c 1.5,0.36 2.49,-0.52 2.89,-1.39 0.39,-0.85 0.43,-2.14 -0.73,-3.04 l -43.72,-21.61 0.89,-1.79 43.95,21.74 c 2.06,1.51 2.2,3.87 1.43,5.54 -0.77,1.67 -2.66,3.09 -5.15,2.5 l -52.19,-11.61 c -1.57,-0.38 -2.56,0.57 -2.94,1.5 -0.38,0.92 -0.33,2.29 1.04,3.11 l 65.8,31.06 c 1.88,1.12 2.68,3.11 2.13,5.13 -0.57,2.02 -2.28,3.32 -4.37,3.32 z"
   id="path87" />
	<path
   d="m 691.86,618.82 c -0.21,0 -0.42,-0.01 -0.63,-0.04 -1.25,-0.18 -2.36,-0.89 -3.05,-1.95 l -5.24,-8.03 c -1.31,-2 -0.76,-4.72 1.23,-6.05 l 6.99,-4.69 c 2,-1.34 4.72,-0.81 6.07,1.17 l 4.85,7.1 c 1.27,1.86 0.93,4.36 -0.78,5.82 l -6.59,5.62 c -0.8,0.69 -1.81,1.05 -2.85,1.05 z m 1.75,-19.49 c -0.46,0 -0.92,0.13 -1.33,0.4 l -6.99,4.69 c -1.08,0.73 -1.38,2.2 -0.67,3.3 l 5.24,8.03 c 0.38,0.58 0.98,0.96 1.66,1.06 0.69,0.1 1.37,-0.1 1.89,-0.55 l 6.59,-5.62 c 0.93,-0.8 1.12,-2.16 0.42,-3.17 l -4.85,-7.1 c -0.44,-0.68 -1.2,-1.04 -1.96,-1.04 z"
   id="path88" />
	<rect
   x="698.15002"
   y="625.01001"
   transform="matrix(0.6903,-0.7235,0.7235,0.6903,-234.2585,704.7218)"
   width="15.86"
   height="2"
   id="rect88" />
	<rect
   x="703.62"
   y="632.53998"
   transform="matrix(0.4435,-0.8963,0.8963,0.4435,-174.4377,986.1185)"
   width="6.5799999"
   height="2"
   id="rect89" />
	<rect
   x="704.48999"
   y="628.27002"
   transform="matrix(0.2051,-0.9787,0.9787,0.2051,-47.9777,1199.4679)"
   width="19.9"
   height="2"
   id="rect90" />
	<path
   d="m 738.25,635.09 c -0.05,0 -0.09,0 -0.14,0 -1.33,-0.06 -2.46,-0.91 -2.88,-2.17 l -1.78,-5.38 1.9,-0.63 1.78,5.38 c 0.24,0.71 0.87,0.8 1.06,0.8 0.19,0 0.83,-0.02 1.13,-0.71 l 1.73,-4.05 c 0.42,-0.98 1.29,-1.68 2.34,-1.87 1.05,-0.19 2.11,0.14 2.85,0.9 l 5.23,5.36 c 0.46,0.47 1.02,0.42 1.4,0.21 0.38,-0.21 0.73,-0.66 0.58,-1.3 l -2.43,-10.4 1.95,-0.45 2.43,10.4 c 0.33,1.4 -0.3,2.81 -1.56,3.5 -1.27,0.69 -2.79,0.46 -3.8,-0.57 l -5.23,-5.36 c -0.28,-0.29 -0.67,-0.41 -1.05,-0.33 -0.39,0.07 -0.71,0.33 -0.86,0.69 l -1.73,4.05 c -0.51,1.19 -1.64,1.93 -2.92,1.93 z"
   id="path90" />
	<rect
   x="594.90002"
   y="557.29999"
   transform="matrix(0.9459,-0.3246,0.3246,0.9459,-148.5979,225.785)"
   width="15.14"
   height="2"
   id="rect91" />
	<rect
   x="597.14001"
   y="564.25"
   transform="matrix(0.7684,-0.64,0.64,0.7684,-222.2849,516.304)"
   width="10.02"
   height="2"
   id="rect92" />
	<rect
   x="600.72998"
   y="568.73999"
   transform="matrix(0.3623,-0.9321,0.9321,0.3623,-142.6684,930.9628)"
   width="16.52"
   height="2"
   id="rect93" />
	<path
   d="m 557.44,516.81 c -0.22,0 -0.45,-0.02 -0.67,-0.07 l -1.73,-0.38 0.43,-1.95 1.73,0.38 c 0.32,0.07 0.65,0 0.91,-0.18 0.27,-0.19 0.44,-0.47 0.48,-0.8 l 0.18,-1.4 c 0.12,-0.89 0.61,-1.69 1.35,-2.2 0.74,-0.51 1.67,-0.67 2.54,-0.46 l 3.44,0.85 c 0.37,0.09 0.75,0 1.03,-0.25 0.29,-0.25 0.43,-0.61 0.4,-0.99 l -0.17,-1.92 c -0.09,-1.02 0.3,-2 1.07,-2.67 0.77,-0.67 1.79,-0.93 2.79,-0.69 l 2.25,0.53 c 0.37,0.09 0.74,-0.01 1.03,-0.26 0.28,-0.25 0.43,-0.61 0.39,-0.99 -0.11,-1.1 0.35,-2.15 1.23,-2.82 0.88,-0.67 2.02,-0.83 3.05,-0.43 l 2.58,0.99 -0.72,1.87 -2.58,-0.99 c -0.38,-0.15 -0.79,-0.09 -1.12,0.16 -0.33,0.25 -0.49,0.63 -0.45,1.04 0.1,1.03 -0.29,2 -1.06,2.68 -0.77,0.68 -1.8,0.94 -2.8,0.7 l -2.25,-0.53 c -0.37,-0.08 -0.74,0.01 -1.03,0.25 -0.28,0.25 -0.43,0.6 -0.39,0.98 l 0.17,1.92 c 0.09,1.02 -0.31,2.02 -1.09,2.68 -0.78,0.66 -1.83,0.92 -2.82,0.67 l -3.44,-0.85 c -0.32,-0.08 -0.65,-0.02 -0.93,0.17 -0.28,0.19 -0.45,0.47 -0.5,0.81 l -0.18,1.4 c -0.12,0.87 -0.59,1.66 -1.32,2.17 -0.52,0.38 -1.15,0.58 -1.8,0.58 z"
   id="path93" />
	<path
   d="m 1210.27,190.71 c -0.03,0 -0.05,0 -0.08,0 -1.02,-0.03 -1.9,-0.63 -2.3,-1.56 l -1.62,-3.76 c -0.14,-0.32 -0.42,-0.36 -0.54,-0.36 0,0 0,0 -0.01,0 -0.12,0 -0.41,0.04 -0.54,0.37 l -1.81,4.52 -1.86,-0.74 1.81,-4.52 c 0.39,-0.98 1.32,-1.61 2.37,-1.63 0.01,0 0.02,0 0.03,0 1.04,0 1.97,0.61 2.38,1.56 l 1.62,3.76 c 0.13,0.31 0.41,0.35 0.53,0.36 0.11,0 0.39,-0.02 0.54,-0.33 l 1.17,-2.34 c 0.39,-0.78 1.14,-1.31 2,-1.41 0.87,-0.11 1.72,0.22 2.28,0.89 l 1.93,2.25 c 0.21,0.24 0.47,0.21 0.57,0.19 0.1,-0.02 0.35,-0.1 0.44,-0.41 l 1.17,-3.91 c 0.26,-0.86 0.93,-1.52 1.81,-1.76 0.87,-0.24 1.79,-0.01 2.44,0.61 l 3.78,3.54 c 0.22,0.21 0.48,0.17 0.58,0.13 0.1,-0.03 0.33,-0.13 0.4,-0.43 l 0.74,-3.2 c 0.21,-0.89 0.84,-1.59 1.71,-1.88 0.87,-0.29 1.8,-0.1 2.49,0.49 l 2.71,2.31 c 0.24,0.2 0.49,0.14 0.59,0.1 0.1,-0.04 0.33,-0.15 0.38,-0.46 l 0.51,-3.17 c 0.15,-0.94 0.81,-1.72 1.71,-2.03 0.91,-0.31 1.9,-0.1 2.6,0.55 0.26,0.24 0.53,0.15 0.64,0.11 0.11,-0.05 0.35,-0.19 0.35,-0.54 v -2.28 h 2 v 2.28 c 0,1.05 -0.59,1.95 -1.55,2.37 -0.96,0.42 -2.03,0.24 -2.8,-0.47 -0.23,-0.22 -0.49,-0.16 -0.59,-0.12 -0.1,0.03 -0.34,0.15 -0.39,0.46 l -0.51,3.17 c -0.15,0.93 -0.77,1.69 -1.66,2.02 -0.89,0.33 -1.85,0.16 -2.57,-0.46 l -2.71,-2.31 c -0.23,-0.19 -0.47,-0.14 -0.57,-0.11 -0.09,0.03 -0.32,0.14 -0.39,0.43 l -0.74,3.2 c -0.21,0.91 -0.87,1.62 -1.77,1.9 -0.9,0.27 -1.84,0.05 -2.53,-0.59 l -3.78,-3.54 c -0.22,-0.2 -0.46,-0.16 -0.56,-0.14 -0.1,0.03 -0.33,0.12 -0.41,0.4 l -1.17,3.91 c -0.27,0.91 -1.02,1.59 -1.94,1.79 -0.93,0.2 -1.89,-0.13 -2.5,-0.85 l -1.93,-2.25 c -0.19,-0.22 -0.42,-0.21 -0.52,-0.2 -0.09,0.01 -0.33,0.07 -0.46,0.32 l -1.17,2.34 c -0.43,0.88 -1.31,1.43 -2.3,1.43 z"
   id="path94" />
	<rect
   x="1210.61"
   y="173.60001"
   transform="matrix(0.5038,-0.8638,0.8638,0.5038,446.4734,1135.5005)"
   width="2"
   height="11.05"
   id="rect94" />
	<rect
   x="1221.08"
   y="169.10001"
   transform="matrix(0.4856,-0.8742,0.8742,0.4856,474.5748,1158.9305)"
   width="2"
   height="14.19"
   id="rect95" />
	<rect
   x="1231.33"
   y="168.27"
   transform="matrix(0.4286,-0.9035,0.9035,0.4286,547.0336,1212.7932)"
   width="2"
   height="11.3"
   id="rect96" />
	<path
   d="m 1124.44,950.37 -1.84,-0.78 3.06,-7.2 c 0.74,-1.74 2.2,-3.03 4.02,-3.55 1.82,-0.52 3.74,-0.19 5.29,0.9 l 3.18,2.24 c 1.11,0.78 2.48,0.99 3.77,0.55 1.29,-0.43 2.26,-1.42 2.68,-2.71 l 0.55,-1.71 c 0.62,-1.95 2.17,-3.46 4.12,-4.05 1.95,-0.59 4.08,-0.18 5.67,1.09 l 3.23,2.57 c 1.11,0.88 2.52,1.15 3.87,0.73 1.35,-0.41 2.37,-1.43 2.79,-2.78 l 0.83,-2.67 c 0.61,-1.96 2.08,-3.45 4.04,-4.07 1.96,-0.63 4.02,-0.27 5.66,0.97 l 3.71,2.81 c 1.12,0.85 2.53,1.09 3.87,0.65 1.34,-0.44 2.33,-1.47 2.73,-2.82 l 1.39,-4.73 c 0.61,-2.07 2.21,-3.65 4.29,-4.24 2.07,-0.58 4.27,-0.06 5.87,1.39 l 2.98,2.71 c 1.11,1.01 2.64,1.36 4.08,0.91 1.44,-0.44 2.51,-1.58 2.87,-3.04 0.53,-2.18 2.13,-3.87 4.29,-4.5 2.15,-0.63 4.41,-0.09 6.04,1.46 l 4.64,4.41 -1.38,1.45 -4.64,-4.41 c -1.11,-1.05 -2.64,-1.42 -4.1,-0.99 -1.46,0.43 -2.55,1.57 -2.91,3.06 -0.52,2.16 -2.1,3.83 -4.22,4.48 -2.12,0.65 -4.37,0.15 -6.01,-1.35 l -2.98,-2.71 c -1.08,-0.99 -2.57,-1.34 -3.98,-0.94 -1.41,0.4 -2.5,1.47 -2.91,2.87 l -1.39,4.73 c -0.58,1.96 -2.08,3.51 -4.02,4.15 -1.95,0.64 -4.08,0.28 -5.71,-0.95 l -3.71,-2.81 c -1.11,-0.84 -2.51,-1.08 -3.84,-0.66 -1.33,0.42 -2.33,1.43 -2.74,2.76 l -0.83,2.67 c -0.61,1.96 -2.15,3.49 -4.11,4.1 -1.96,0.6 -4.09,0.2 -5.7,-1.08 l -3.23,-2.57 c -1.1,-0.88 -2.5,-1.15 -3.85,-0.74 -1.35,0.41 -2.37,1.41 -2.8,2.75 l -0.55,1.71 c -0.61,1.91 -2.05,3.36 -3.95,4 -1.9,0.64 -3.92,0.34 -5.56,-0.82 l -3.18,-2.24 c -1.05,-0.74 -2.35,-0.96 -3.59,-0.61 -1.23,0.35 -2.23,1.23 -2.73,2.41 z"
   id="path96" />
	<path
   d="m 1059.09,900.82 h -2 v -9.59 c 0,-1.32 -0.68,-2.5 -1.81,-3.17 -1.13,-0.67 -2.5,-0.69 -3.65,-0.06 l -4.23,2.33 c -1.78,0.98 -3.89,0.95 -5.63,-0.09 -1.75,-1.03 -2.79,-2.86 -2.79,-4.89 v -3.3 c 0,-1.25 -0.6,-2.37 -1.64,-3.07 -1.04,-0.7 -2.31,-0.82 -3.46,-0.33 l -5.43,2.27 c -1.76,0.74 -3.76,0.55 -5.34,-0.51 -1.59,-1.06 -2.54,-2.83 -2.54,-4.73 v -1.09 c 0,-1.25 -0.59,-2.36 -1.63,-3.06 -1.04,-0.7 -2.3,-0.83 -3.45,-0.35 l -5.2,2.13 c -1.76,0.72 -3.75,0.52 -5.32,-0.54 -1.58,-1.06 -2.52,-2.82 -2.52,-4.72 0,-1.26 -0.6,-2.38 -1.65,-3.07 -1.05,-0.7 -2.32,-0.81 -3.47,-0.32 l -4.04,1.71 c -1.56,0.66 -3.31,0.59 -4.81,-0.18 -1.5,-0.77 -2.58,-2.15 -2.95,-3.8 l -0.52,-2.28 c -0.25,-1.08 -0.95,-1.98 -1.93,-2.47 -0.99,-0.5 -2.13,-0.53 -3.14,-0.08 l -7.18,3.15 -0.8,-1.83 7.18,-3.15 c 1.56,-0.68 3.33,-0.64 4.85,0.13 1.52,0.77 2.61,2.16 2.99,3.82 l 0.52,2.28 c 0.24,1.07 0.94,1.96 1.91,2.46 0.97,0.5 2.11,0.54 3.12,0.12 l 4.04,-1.71 c 1.76,-0.75 3.76,-0.56 5.36,0.5 1.59,1.06 2.54,2.83 2.54,4.74 0,1.25 0.59,2.36 1.63,3.06 1.04,0.7 2.29,0.82 3.45,0.35 l 5.2,-2.13 c 1.76,-0.72 3.75,-0.52 5.32,0.54 1.58,1.06 2.52,2.82 2.52,4.72 v 1.09 c 0,1.25 0.6,2.37 1.64,3.07 1.04,0.7 2.31,0.82 3.46,0.33 l 5.43,-2.27 c 1.76,-0.73 3.76,-0.54 5.34,0.51 1.59,1.06 2.53,2.83 2.53,4.73 v 3.3 c 0,1.32 0.68,2.5 1.81,3.17 1.13,0.67 2.5,0.69 3.65,0.06 l 4.23,-2.33 c 1.78,-0.98 3.89,-0.95 5.63,0.09 1.75,1.03 2.79,2.86 2.79,4.89 v 9.57 z"
   id="path97" />
	<g
   id="g99">
		<g
   id="g98">
			<path
   d="m 1283.96,594.24 c -9.24,15 -33.84,22.86 -45.82,6.74 -13.31,-17.92 -3.82,-56.03 23.88,-57.63 6.32,-0.37 12.62,1.7 17.6,5.82 12.64,10.47 14.7,28.25 4.34,45.07 z"
   id="path98" />
		</g>
	</g>
	<g
   id="g101">
		<g
   id="g100">
			<path
   class="st6"
   d="m 1252.37,574.38 c -3.4,10.51 -7.3,22.13 -12.19,16.17 -3.04,-3.71 -4.89,-12.63 -2.72,-21.11 1.71,-6.68 6.49,-13.09 11.24,-16.45 2.46,-1.74 4.95,-2.14 6.94,-1.08 5.08,2.69 0.54,10.68 -3.27,22.47 z"
   id="path99" />
		</g>
	</g>
	<g
   id="g103">
		<g
   id="g102">
			<path
   class="st6"
   d="m 1060.33,282.47 c -5.13,5.49 -10.9,11.5 -13.27,5.24 -1.47,-3.89 -0.78,-10.74 2.92,-15.43 2.91,-3.7 8.13,-5.8 12.6,-5.87 2.32,-0.03 4.33,0.85 5.63,2.48 3.28,4.15 -2.13,7.42 -7.88,13.58 z"
   id="path101" />
		</g>
	</g>
	<g
   id="g105">
		<g
   id="g104">
			<path
   class="st6"
   d="m 725.16,583.94 c 0.07,-3.59 0.21,-7.57 2.96,-6.11 1.71,0.91 5,8.12 1.23,12.53 -0.71,0.83 -1.76,1.09 -2.71,0.92 -2.41,-0.42 -1.56,-3.32 -1.48,-7.34 z"
   id="path103" />
		</g>
	</g>
	<g
   id="g107">
		<g
   id="g106">
			<path
   d="m 797.11,677.23 c 0.43,-0.93 -0.34,-1.84 -2.26,-2.55 -3.83,-1.41 -11.28,-2.42 -25.73,-1.42 -13.32,0.92 -20.01,3.73 -23.36,6.14 -1.79,1.29 -1.65,2.26 -0.01,2.99 20.14,3.42 40.81,0.74 51.36,-5.16 z"
   id="path105" />
		</g>
	</g>
	<path
   d="m 1147.17,591.59 c -1.67,-7.45 -6.26,-30.34 -6.31,-30.57 l 1.96,-0.39 c 0.05,0.23 4.63,23.09 6.3,30.52 z"
   id="path107" />
	<path
   d="m 1167.44,594.02 c -2.06,-2.99 -3.86,-6.97 -4.94,-10.91 -0.38,-1.38 -0.73,-2.72 -1.06,-4.01 -1.69,-6.47 -3.02,-11.59 -6.25,-14.54 l 1.35,-1.48 c 3.67,3.35 5.07,8.72 6.84,15.51 0.33,1.28 0.68,2.61 1.06,3.98 1.03,3.74 2.72,7.5 4.66,10.31 z"
   id="path108" />
	<path
   d="m 1176.93,594.48 -2,-0.06 c 0.05,-1.57 -0.1,-3.62 -0.25,-5.79 -0.15,-2.23 -0.33,-4.75 -0.33,-7.19 0,-4.45 1.1,-8.79 2.94,-11.63 l 1.68,1.09 c -1.64,2.53 -2.62,6.46 -2.62,10.54 0,2.36 0.16,4.75 0.32,7.05 0.16,2.22 0.31,4.32 0.26,5.99 z"
   id="path109" />
	<path
   d="m 1241.72,674.02 c -2.12,0 -4.21,-0.89 -5.68,-2.6 l -16.65,-19.46 1.52,-1.3 16.65,19.46 c 1.93,2.26 5.36,2.56 7.65,0.66 l 49.6,-45.17 c 2.72,-2.33 5.78,-4.28 9.11,-5.8 l 0.83,1.82 c -3.16,1.44 -6.06,3.29 -8.62,5.48 l -49.61,45.18 c -1.4,1.16 -3.11,1.73 -4.8,1.73 z"
   id="path110" />
	<path
   d="m 1245.02,761.01 c -8.55,0 -17.56,-3.69 -25.34,-13.55 l -19.16,-21.21 1.48,-1.34 19.21,21.26 c 14.06,17.81 32.31,14.28 43.66,5.87 9.08,-6.73 21.72,-17.49 37.57,-31.99 l 1.35,1.48 c -15.9,14.54 -28.6,25.35 -37.73,32.12 -5.78,4.27 -13.22,7.36 -21.04,7.36 z"
   id="path111" />
	<path
   d="m 1120.51,597.55 c -1.11,-1.95 -2.03,-3.9 -2.98,-6.34 l 1.87,-0.72 c 0.92,2.37 1.77,4.19 2.85,6.07 z"
   id="path112" />
	<path
   d="m 1132.29,594.05 c -1.62,-3.03 -4.66,-9.31 -6.82,-17.29 l 1.93,-0.52 c 2.1,7.79 5.07,13.91 6.65,16.86 z"
   id="path113" />
	<path
   d="m 1270.32,623.41 c -16.17,0 -31.01,-8.83 -38.73,-23.05 l 1.76,-0.96 c 7.37,13.57 21.54,22.01 36.97,22.01 z"
   id="path114" />
	<path
   d="m 999.22,322.47 c -1.59,0 -3.54,-0.86 -5.61,-2.52 -2.28,-1.82 -5.81,-4.67 -8.7,-6.99 l 1.26,-1.56 c 2.89,2.33 6.41,5.17 8.69,6.99 2.13,1.71 4.2,2.47 5.15,1.89 0.86,-0.52 1.06,-2.29 0.57,-4.87 -0.59,-3.08 -0.44,-5.55 0.46,-7.36 l 1.79,0.89 c -0.48,0.97 -0.92,2.81 -0.29,6.09 0.69,3.6 0.19,5.94 -1.5,6.96 -0.53,0.32 -1.15,0.48 -1.82,0.48 z"
   id="path115" />
	<path
   d="m 1072.4,333.39 -1.43,-1.4 26.78,-27.42 c 9.4,-9.63 24.64,-10.15 34.68,-1.19 l -1.33,1.49 c -9.24,-8.25 -23.26,-7.77 -31.91,1.09 z"
   id="path116" />
	<rect
   x="1099.9399"
   y="351.76001"
   transform="matrix(0.7054,-0.7088,0.7088,0.7054,79.6708,897.2149)"
   width="38.52"
   height="2"
   id="rect116" />
	<path
   d="m 702.04,597.75 -6.1,-9.03 c -2.15,-2.84 -5.34,-4.69 -8.93,-5.16 -3.59,-0.46 -7.14,0.51 -9.99,2.74 l -1.23,-1.57 c 3.28,-2.57 7.35,-3.69 11.48,-3.15 4.13,0.54 7.78,2.66 10.3,5.98 l 6.13,9.07 z"
   id="path117" />
	<rect
   x="724.15002"
   y="656.81"
   transform="matrix(0.0508,-0.9987,0.9987,0.0508,41.5014,1359.2747)"
   width="23.32"
   height="2"
   id="rect117" />
	<rect
   x="798.51001"
   y="617.21997"
   transform="matrix(0.9697,-0.2444,0.2444,0.9697,-131.4858,214.7143)"
   width="2"
   height="40"
   id="rect118" />
</g>
</svg>
