<svg viewBox="0 0 213.54 213.54" xmlns="http://www.w3.org/2000/svg">
  <style>
    path {
      stroke: #053b50;
    }
    @media (prefers-color-scheme: dark) {
      path {
        stroke: white;
      }
    }
  </style>

  <path
    d="M90.858 90.858h31.825v31.825H90.858ZM21.484 56.422a50.35 50.35 0 0 1 .301-.001 50.35 50.35 0 0 1 50.35 50.35 50.35 50.35 0 0 1-50.35 50.349 50.35 50.35 0 0 1-.3-.001m-14.87-50.111A17.736 17.736 0 0 1 24.35 89.272a17.736 17.736 0 0 1 17.736 17.736 17.736 17.736 0 0 1-17.736 17.736 17.736 17.736 0 0 1-17.736-17.736Zm150.504-85.524a50.35 50.35 0 0 1 0 .301 50.35 50.35 0 0 1-50.349 50.35 50.35 50.35 0 0 1-50.35-50.35 50.35 50.35 0 0 1 .002-.3m50.11-14.87A17.736 17.736 0 0 1 124.27 24.35a17.736 17.736 0 0 1-17.736 17.736A17.736 17.736 0 0 1 88.797 24.35a17.736 17.736 0 0 1 17.736-17.736Zm-50.11 185.441a50.35 50.35 0 0 1-.001-.301 50.35 50.35 0 0 1 50.35-50.35 50.35 50.35 0 0 1 50.349 50.35 50.35 50.35 0 0 1-.001.3m-50.111 14.87a17.736 17.736 0 0 1-17.736-17.735 17.736 17.736 0 0 1 17.736-17.736 17.736 17.736 0 0 1 17.736 17.736 17.736 17.736 0 0 1-17.736 17.736zm85.048-49.806a50.35 50.35 0 0 1-.301 0 50.35 50.35 0 0 1-50.35-50.349 50.35 50.35 0 0 1 50.35-50.35 50.35 50.35 0 0 1 .3.002m14.87 50.11a17.736 17.736 0 0 1-17.735 17.737 17.736 17.736 0 0 1-17.736-17.736 17.736 17.736 0 0 1 17.736-17.736 17.736 17.736 0 0 1 17.736 17.736z"
    fill="none"
    stroke="#053b50"
    stroke-width="13.229"
    stroke-linecap="square"
    stroke-linejoin="round"
  />
</svg>
