<svg
  viewBox="0 0 1322.917 1322.917"
  version="1.1"
  id="svg1"
  xmlns="http://www.w3.org/2000/svg"
>
  <style>
    path {
      stroke: #053b50;
    }

    @media (prefers-color-scheme: dark) {
      circle {
        fill-opacity: 1;
      }
    }
  </style>

  <circle
    id="circle-bg"
    cx="661.458"
    cy="661.458"
    r="661.458"
    fill="#fff"
    fill-opacity="0.0"
  />
  <path
    id="logo"
    d="M572.738 572.736h177.446V750.18H572.738ZM185.934 380.732a280.732 280.73 0 0 1 1.68-.005A280.732 280.73 0 0 1 468.348 661.46a280.732 280.73 0 0 1-280.732 280.73 280.732 280.73 0 0 1-1.676-.008m-82.912-279.398a98.89 98.89 0 0 1 98.89-98.89 98.89 98.89 0 0 1 98.891 98.89 98.89 98.89 0 0 1-98.89 98.89 98.89 98.89 0 0 1-98.891-98.89zm839.162-476.85a280.732 280.73 0 0 1 .008 1.681 280.732 280.73 0 0 1-280.733 280.731 280.732 280.73 0 0 1-280.732-280.73 280.732 280.73 0 0 1 .008-1.676m279.396-82.912a98.89 98.89 0 0 1 98.891 98.89 98.89 98.89 0 0 1-98.891 98.89 98.89 98.89 0 0 1-98.89-98.89 98.89 98.89 0 0 1 98.89-98.89zM380.734 1136.984a280.732 280.73 0 0 1-.008-1.681 280.732 280.73 0 0 1 280.733-280.731 280.732 280.73 0 0 1 280.732 280.73 280.732 280.73 0 0 1-.008 1.677M662.78 1219.89a98.89 98.89 0 0 1-98.89-98.89 98.89 98.89 0 0 1 98.89-98.89 98.89 98.89 0 0 1 98.891 98.89 98.89 98.89 0 0 1-98.89 98.89zm474.203-277.706a280.732 280.73 0 0 1-1.68.008 280.732 280.73 0 0 1-280.733-280.73 280.732 280.73 0 0 1 280.732-280.732 280.732 280.73 0 0 1 1.676.005m82.912 279.402a98.89 98.89 0 0 1-98.89 98.89 98.89 98.89 0 0 1-98.891-98.89 98.89 98.89 0 0 1 98.89-98.89 98.89 98.89 0 0 1 98.891 98.89z"
    fill="none"
    stroke="#053b50"
    stroke-width="73.762"
    stroke-linecap="square"
    stroke-linejoin="round"
  />
</svg>
